# xmcd CD database file
#
# Track frame offsets:
#	150
#	10616
#	26036
#	42752
#	53672
#	65096
#
# Disc length: 996 seconds
#
# Revision: 0
# Processed by: cddbd v1.5.2PL0 Copyright (c) Steve Scherf et al.
# Submitted via: CDex 1.51
#
DISCID=4403e206
DTITLE=Ikaik - You Wouldn't Know Unless I Told You
DYEAR=2004
DGENRE=Rhythmic Soul
TTITLE0=Nothing Broken, Nothing Missing
TTITLE1=The Mercury
TTITLE2=Promised Lands
TTITLE3=I See You Never
TTITLE4=A Quiet Understanding
TTITLE5=Six Months Later...
EXTD=YEAR: 2004
EXTT0=
EXTT1=
EXTT2=
EXTT3=
EXTT4=
EXTT5=
PLAYORDER=
